<svg width="1200" height="760" viewBox="0 0 1200 760" fill="none" xmlns="http://www.w3.org/2000/svg">
  <rect width="1200" height="760" rx="36" fill="#F3EADF"/>
  <rect x="42" y="42" width="1116" height="676" rx="28" fill="#1B1714"/>
  <circle cx="1015" cy="126" r="145" fill="#B96345" fill-opacity="0.22"/>
  <circle cx="160" cy="630" r="190" fill="#D7B98E" fill-opacity="0.14"/>
  <text x="92" y="126" fill="#F3EADF" font-family="Georgia, serif" font-size="34" letter-spacing="3">ROASTED SLOWLY</text>
  <text x="92" y="240" fill="#F3EADF" font-family="Georgia, serif" font-size="92" font-weight="700">Premium</text>
  <text x="92" y="330" fill="#D7B98E" font-family="Georgia, serif" font-size="92" font-style="italic">coffee.</text>
  <text x="96" y="392" fill="#BFB4AA" font-family="Arial, sans-serif" font-size="24">A refined storefront for everyday rituals.</text>
  <rect x="94" y="452" width="206" height="58" rx="29" fill="#B96345"/>
  <text x="133" y="489" fill="#FFF8F1" font-family="Arial, sans-serif" font-size="20" font-weight="700">SHOP COFFEE</text>
  <g transform="translate(675 198)">
    <ellipse cx="182" cy="318" rx="196" ry="34" fill="#000000" fill-opacity="0.22"/>
    <path d="M63 82C63 48 91 20 125 20H281C315 20 343 48 343 82V260C343 298 312 329 274 329H132C94 329 63 298 63 260V82Z" fill="#E7D1B4"/>
    <path d="M343 112H382C432 112 466 151 466 196C466 242 431 278 385 278H343" stroke="#E7D1B4" stroke-width="34" stroke-linecap="round"/>
    <ellipse cx="203" cy="68" rx="118" ry="30" fill="#4C2F20"/>
    <path d="M146 3C124 -21 149 -38 144 -64" stroke="#D8C8B8" stroke-width="11" stroke-linecap="round"/>
    <path d="M202 1C180 -25 207 -44 200 -72" stroke="#D8C8B8" stroke-width="11" stroke-linecap="round"/>
    <path d="M257 5C235 -19 260 -38 255 -63" stroke="#D8C8B8" stroke-width="11" stroke-linecap="round"/>
    <circle cx="203" cy="190" r="62" fill="#1B1714"/>
    <path d="M197 157C230 159 248 179 248 208C217 212 197 193 197 157Z" fill="#B96345"/>
    <path d="M197 157C168 164 151 183 153 211C181 210 200 190 197 157Z" fill="#D7B98E"/>
  </g>
  <text x="92" y="662" fill="#8D8177" font-family="Arial, sans-serif" font-size="18" letter-spacing="2">NEXT.JS · REACT · TYPESCRIPT</text>
</svg>
